PathFileType	4	(X/Y/Z)	C:\Users\Basilio\Documents\Thesis Gigler\squatting_fais\c3dfiles\040\SLS_pre_back5\markers_experimental.trc
DataRate	CameraRate	NumFrames	NumMarkers	Units	OrigDataRate	OrigDataStartFrame	OrigNumFrames
200.000000	200.000000	4	63	mm	200.000000	367	1469
Frame#	Time	FHD			LBHD			RBHD			C7			T10			CLAV			LSHO			LUUPA			LMUPA			LDUPA			LLEP			LMEP			LRAD			LUL			LRFIN			RSHO			RUPA1			RMUPA			RDUPA			RLEP			RMEP			RRAD			RUL			RUFIN			LASI			RASI			USACR			LSACR			RSACR			LTHI1			LTHI2			LTHI3			LTHI4			LLFC			LMFC			LTIB1			LTIB2			LTIB3			LTIB4			LLMAL			LMMAL			LHEE			LMT1			LMT2			LMT5			RTHI			RTHI2			RTHI3			RTHI4			RLFC			RMFC			RTIB1			RTIB2			RTIB3			RTIB4			RLMAL			RMMAL			RHEE			RMT1			RMT2			RMT5			*61			*62			
		X1	Y1	Z1	X2	Y2	Z2	X3	Y3	Z3	X4	Y4	Z4	X5	Y5	Z5	X6	Y6	Z6	X7	Y7	Z7	X8	Y8	Z8	X9	Y9	Z9	X10	Y10	Z10	X11	Y11	Z11	X12	Y12	Z12	X13	Y13	Z13	X14	Y14	Z14	X15	Y15	Z15	X16	Y16	Z16	X17	Y17	Z17	X18	Y18	Z18	X19	Y19	Z19	X20	Y20	Z20	X21	Y21	Z21	X22	Y22	Z22	X23	Y23	Z23	X24	Y24	Z24	X25	Y25	Z25	X26	Y26	Z26	X27	Y27	Z27	X28	Y28	Z28	X29	Y29	Z29	X30	Y30	Z30	X31	Y31	Z31	X32	Y32	Z32	X33	Y33	Z33	X34	Y34	Z34	X35	Y35	Z35	X36	Y36	Z36	X37	Y37	Z37	X38	Y38	Z38	X39	Y39	Z39	X40	Y40	Z40	X41	Y41	Z41	X42	Y42	Z42	X43	Y43	Z43	X44	Y44	Z44	X45	Y45	Z45	X46	Y46	Z46	X47	Y47	Z47	X48	Y48	Z48	X49	Y49	Z49	X50	Y50	Z50	X51	Y51	Z51	X52	Y52	Z52	X53	Y53	Z53	X54	Y54	Z54	X55	Y55	Z55	X56	Y56	Z56	X57	Y57	Z57	X58	Y58	Z58	X59	Y59	Z59	X60	Y60	Z60	X61	Y61	Z61	X62	Y62	Z62	X63	Y63	Z63	

368	1.835	-134.2533569335938	1764.955444335938	-1210.567626953125	-260.8850097656251	1716.03173828125	-1251.097412109375	-314.8095092773438	1682.61376953125	-1118.649291992188	-331.7314758300782	1569.124145507813	-1159.225463867188	-413.6058959960939	1264.592163085938	-1129.52392578125	-212.7019348144532	1484.88134765625	-1162.180908203125	-269.0848083496094	1546.343872070313	-1305.34765625	-132.6469268798828	1456.223510742188	-1394.042602539063	-95.89969635009767	1465.070068359375	-1361.900512695313	-68.81055450439455	1429.543579101563	-1402.876708984375	-17.93484687805176	1389.978515625	-1406.987548828125	-38.6960678100586	1336.720947265625	-1371.945678710938	nan	nan	nan	254.5478210449219	1365.96630859375	-1327.878662109375	314.9294738769532	1379.74951171875	-1233.712158203125	-239.1419525146485	1539.745483398438	-1019.207336425781	-101.7042999267578	1438.651000976563	-941.4600830078127	-67.86691284179689	1454.75146484375	-971.4075927734377	-37.89584350585938	1410.066040039063	-943.8654785156252	21.5927848815918	1387.682983398438	-957.8006591796877	-4.081767082214356	1330.224243164063	-999.3569335937502	251.6520996093751	1383.497924804688	-1143.403076171875	277.7157287597657	1369.0244140625	-1072.63818359375	343.0584106445313	1386.113403320313	-1164.563110351563	-266.0881042480469	1057.604858398438	-1231.262084960938	-262.3469238281251	1064.234985351563	-1003.701049804688	-441.809539794922	1133.304077148438	-1114.443725585938	-454.4276428222657	1103.3056640625	-1141.21923828125	-453.0384521484376	1105.54150390625	-1084.265502929688	-357.1195068359376	803.9949951171877	-1278.516357421875	-308.1961975097657	734.2117919921876	-1276.060302734375	-262.1980895996094	744.3037719726564	-1277.975463867188	-321.8603820800782	679.8250122070314	-1259.407958984375	-285.3364257812501	551.7960205078126	-1240.200805664063	-295.6940612792969	543.0206298828126	-1108.769287109375	-262.5021057128907	329.1748046875001	-1178.302612304688	-334.5219116210938	294.8468627929688	-1217.192138671875	-291.8205566406251	284.5740966796876	-1202.975952148438	-292.3222656250001	208.4865264892579	-1160.515747070313	-365.7456665039063	127.5368423461914	-1170.799072265625	-334.9118347167969	142.957260131836	-1088.340209960938	-429.5260314941407	98.96707916259768	-1120.061279296875	-216.5465850830079	55.87579345703126	-1102.365844726563	-216.3987274169922	53.50022888183595	-1148.859497070313	-270.8303527832032	41.76354980468751	-1197.184204101563	-316.7056884765626	800.3566894531252	-934.5920410156252	-283.4343261718751	742.6821289062501	-937.556091308594	-250.6286315917969	744.4851684570314	-942.9572753906252	-312.8812561035157	665.8350219726564	-946.0708007812502	-324.3776245117188	556.9851684570314	-960.633239746094	-323.1227722167969	552.2463989257814	-1088.331176757813	-458.643280029297	434.2557067871095	-996.500427246094	-557.7996826171876	476.7089843750001	-981.679626464844	-544.3227539062501	432.0357666015626	-989.0195922851565	-578.9685058593751	399.7587890625001	-1025.317749023438	-707.2051391601564	406.1571350097657	-1016.858581542969	-679.0099487304689	396.7607421875001	-1101.500732421875	-758.9303588867189	456.2802734375001	-1080.808471679688	-701.9543457031251	242.5117340087891	-1091.86376953125	-708.8193359375001	242.3541259765626	-1052.161987304688	-753.9335327148439	271.6160278320313	-1007.269348144531	nan	nan	nan	nan	nan	nan	
369	1.84	-133.5626220703125	1764.41796875	-1210.65234375	-260.2384948730469	1715.487060546875	-1251.055908203125	-314.2972106933594	1681.927734375	-1118.620727539063	-331.0954895019532	1568.808837890625	-1159.108764648438	-413.6174316406251	1264.328247070313	-1129.4384765625	-212.3780517578126	1484.314819335938	-1162.225952148438	-268.6143188476563	1545.97314453125	-1305.302734375	-132.2315368652344	1456.079223632813	-1393.9892578125	-95.64308929443361	1464.87255859375	-1361.792724609375	-68.43056488037111	1429.440185546875	-1402.823974609375	-17.44889259338379	1389.828002929688	-1406.982788085938	-38.26797485351563	1336.435302734375	-1372.115844726563	nan	nan	nan	254.9645385742188	1365.680297851563	-1328.027954101563	315.8008422851563	1378.78662109375	-1233.8369140625	-238.7656555175782	1539.310791015625	-1019.244445800781	-101.1423034667969	1438.311767578125	-941.4906005859377	-67.04344940185548	1454.401977539063	-971.4500732421877	-37.46806335449219	1409.471069335938	-943.8250122070315	22.27750015258789	1387.346069335938	-957.9541625976565	-3.551599025726319	1330.053100585938	-999.2415771484377	252.4728393554688	1382.895751953125	-1143.40771484375	278.2019653320313	1368.411743164063	-1072.662963867188	344.1835327148438	1384.914794921875	-1164.834228515625	-266.4335937500001	1057.198486328125	-1230.934326171875	-262.9181823730469	1063.693115234375	-1003.640075683594	-442.2033081054689	1133.127075195313	-1114.406616210938	-454.8880615234376	1103.198120117188	-1141.259155273438	-453.7129516601564	1105.349853515625	-1084.353271484375	-356.7837219238282	803.6187744140627	-1278.713989257813	-307.7167663574219	733.9278564453126	-1276.240356445313	-261.9032897949219	744.2812500000001	-1278.043579101563	-321.2570495605469	679.4837036132814	-1259.646850585938	-284.4270629882813	551.4111938476564	-1240.159301757813	-296.9772949218751	542.9653930664064	-1110.190673828125	-262.2573852539063	329.0131835937501	-1178.414184570313	-334.2152709960938	294.7142639160157	-1217.339965820313	-291.6898193359376	284.8523254394532	-1202.977783203125	-292.3093261718751	208.3385925292969	-1160.630249023438	-365.7528686523438	127.5159454345703	-1170.818725585938	-334.8444824218751	142.8797149658203	-1088.427612304688	-429.4313354492189	98.86511993408206	-1120.0380859375	-216.4527893066407	55.88604736328126	-1102.459106445313	-216.3618621826172	53.48359298706056	-1148.915771484375	-270.8539123535157	41.71598434448243	-1197.232299804688	-317.6806640625001	799.7498168945315	-934.4800415039065	-283.9151000976563	742.3082885742189	-937.5354614257815	-251.1857604980469	743.6967163085939	-943.3212890625002	-313.7682495117188	665.3987426757814	-946.127868652344	-324.7064208984376	556.5875244140626	-960.6942138671877	-324.9828186035157	552.0442504882814	-1089.425170898438	-458.7057189941407	434.2997436523439	-995.9004516601565	-558.3644409179689	475.8586730957032	-981.2698364257815	-544.9239501953126	431.4905700683595	-988.507995605469	-579.9226074218751	399.1133117675782	-1024.705078125	-708.0774536132814	406.2252807617189	-1015.600341796875	-679.9827270507814	396.7063293457032	-1100.051391601563	-759.6174926757814	456.1014099121095	-1079.328735351563	-702.9066162109376	242.6108703613282	-1090.802124023438	-709.5515136718751	242.1111907958985	-1051.387451171875	-754.6898193359376	271.4056091308594	-1006.020202636719	nan	nan	nan	nan	nan	nan	
370	1.845	-134.230697631836	1764.276123046875	-1210.916259765625	-259.6934814453126	1714.933349609375	-1251.103515625	-313.7168273925782	1681.255615234375	-1118.590698242188	-330.5594177246094	1568.34814453125	-1159.036254882813	-414.116180419922	1263.824096679688	-1129.583740234375	-211.9331665039063	1483.715209960938	-1162.181030273438	-268.1641235351563	1545.555419921875	-1305.240112304688	-131.8077239990235	1455.814086914063	-1393.942260742188	-95.09764099121095	1464.71240234375	-1361.681030273438	-67.98413848876955	1429.216674804688	-1402.763427734375	-16.90979385375977	1389.593139648438	-1406.981811523438	-37.79314422607423	1336.247802734375	-1372.191162109375	nan	nan	nan	255.5334167480469	1365.346801757813	-1328.236450195313	316.3199157714844	1378.109252929688	-1233.987426757813	-237.8317260742188	1538.7255859375	-1019.218078613281	-100.7601928710938	1437.792114257813	-941.3925781250002	-66.29598236083986	1453.922485351563	-971.6572875976565	-36.69689178466798	1409.234985351563	-943.9060058593752	22.91060638427735	1386.873413085938	-958.1311645507815	-2.485222578048706	1329.68408203125	-999.5671997070315	253.2133331298829	1382.028076171875	-1143.287719726563	279.2101440429688	1367.93310546875	-1072.869506835938	344.9933166503907	1383.903930664063	-1164.158081054688	-266.8103637695313	1056.759765625	-1230.560913085938	-263.6475830078126	1063.355224609375	-1003.243408203125	-442.6108703613282	1132.93310546875	-1114.404907226563	-455.3120727539064	1103.1083984375	-1141.300659179688	-454.167694091797	1105.127685546875	-1084.356323242188	-356.5709533691407	803.2666625976565	-1278.94921875	-307.1804809570313	733.6043090820314	-1276.411743164063	-261.5991516113282	744.2093505859376	-1278.037963867188	-320.7991943359376	679.1616821289064	-1259.8671875	-283.7183532714844	551.2044677734376	-1240.148681640625	-296.4930114746094	542.8819580078126	-1110.29150390625	-261.6042175292969	328.8518066406251	-1178.721801757813	-333.9985961914063	294.6345520019532	-1217.533203125	-292.2448425292969	284.5345764160157	-1202.481079101563	-292.2397155761719	208.2115020751954	-1160.664916992188	-365.8025817871094	127.44677734375	-1170.862060546875	-334.8383178710938	142.8886413574219	-1088.547241210938	-429.5080871582032	98.95125579833987	-1120.061157226563	-216.5832672119141	55.92250061035158	-1102.4462890625	-216.3230743408204	53.35874938964845	-1148.89501953125	-270.9075927734376	41.65100860595704	-1197.225341796875	-318.5513916015626	799.2319946289065	-934.4658813476565	-284.3163146972657	741.9127197265626	-937.688903808594	-251.7181396484376	743.1950073242189	-943.3009033203127	-314.3102111816407	664.6853637695314	-946.169372558594	-325.1849670410157	555.9997558593751	-960.739685058594	-325.7320861816407	551.6312255859376	-1089.397827148438	-459.7073364257814	433.5336303710939	-996.0571289062502	-558.8520507812501	476.1521606445314	-979.857849121094	-545.3778686523439	431.1775817871095	-987.7952880859377	-580.5034179687501	399.2430725097657	-1023.691101074219	-708.5806274414064	405.9440307617189	-1014.578430175781	-681.2217407226564	396.7349548339845	-1099.052124023438	-760.4609375000001	455.9976501464845	-1077.730102539063	-704.0261230468751	242.8905792236329	-1090.23388671875	-710.4119262695314	242.025375366211	-1050.444213867188	-755.3835449218751	271.2217102050782	-1004.770202636719	nan	nan	nan	nan	nan	nan	
371	1.85	-133.3987579345703	1763.787719726563	-1210.994262695313	-259.1406555175782	1714.351440429688	-1251.151000976563	-312.8768920898438	1680.60107421875	-1118.671997070313	-330.2492370605469	1567.983154296875	-1159.099487304688	-414.1900329589845	1263.619140625	-1129.457397460938	-211.3462677001954	1483.2373046875	-1162.30126953125	-267.6787414550782	1545.156494140625	-1305.195190429688	-131.3108062744141	1455.64306640625	-1393.922729492188	-94.65402984619142	1464.462524414063	-1361.624877929688	-67.50375366210939	1429.004638671875	-1402.706787109375	-16.44498443603516	1389.477661132813	-1407.072875976563	-37.28692245483399	1335.96533203125	-1372.361328125	nan	nan	nan	256.1315002441407	1364.997924804688	-1328.526000976563	316.8661193847657	1377.500854492188	-1234.189086914063	-237.7000427246094	1538.176025390625	-1019.777465820313	-100.2528762817383	1437.5439453125	-941.4742431640627	-65.80682373046876	1453.540771484375	-971.6359863281252	-35.74009704589844	1409.13525390625	-943.9862060546877	23.56184005737305	1386.369506835938	-958.4212646484377	-1.621581435203553	1328.92578125	-999.891784667969	254.1010131835938	1381.2314453125	-1143.376220703125	280.0734558105469	1367.105834960938	-1072.77734375	345.7137451171876	1383.303955078125	-1164.643188476563	-267.0375976562501	1056.271240234375	-1230.194946289063	-264.8395690917969	1062.367431640625	-1002.674621582031	-442.9801635742189	1132.679931640625	-1114.405883789063	-455.899139404297	1102.932250976563	-1141.463012695313	-454.7310180664064	1104.973266601563	-1084.334106445313	-356.4190979003907	802.9906005859377	-1279.172119140625	-306.8281555175782	733.2882690429689	-1276.608032226563	-261.1730957031251	744.0582885742189	-1278.025024414063	-320.4190673828126	678.8576660156251	-1259.999633789063	-283.1919250488282	551.0244750976564	-1240.176391601563	-294.6735229492188	542.7251586914064	-1109.485473632813	-261.4112243652344	328.7962341308594	-1178.791748046875	-333.7454833984376	294.5527954101563	-1217.636840820313	-291.9714355468751	284.4484863281251	-1202.72900390625	-291.9797668457032	207.9582519531251	-1160.83740234375	-366.5593872070313	127.895263671875	-1171.259765625	-334.7796020507813	142.855209350586	-1088.650634765625	-428.9887084960939	98.65363311767581	-1119.689086914063	-216.5196380615235	55.85694885253908	-1102.604858398438	-216.3585357666016	53.38950347900392	-1148.938110351563	-270.8489379882813	41.63169479370118	-1197.237670898438	-319.0809631347657	798.7449951171877	-934.5115966796877	-285.0820922851563	741.3164062500001	-937.9077758789065	-252.5225067138672	742.8270874023439	-943.4046020507815	-315.1329345703126	664.2282104492189	-946.0806274414065	-325.6008300781251	555.5349121093751	-960.6505126953127	-325.6799621582032	550.8406982421876	-1088.416137695313	-460.6391601562501	433.2855224609376	-995.5100708007815	-559.0744018554689	475.7198486328126	-979.568298339844	-545.9679565429689	430.8115234375001	-987.2622680664065	-581.3453369140626	398.9164123535157	-1022.93994140625	-709.6518554687501	405.8819580078126	-1013.008544921875	-682.1907348632814	396.7416076660157	-1098.16845703125	-761.8537597656251	455.699676513672	-1076.628173828125	-705.2173461914064	242.4813842773438	-1088.981201171875	-711.5585937500001	241.8592376708985	-1049.413330078125	-756.1363525390626	271.1857299804688	-1003.642211914063	nan	nan	nan	nan	nan	nan	
